<mxfile host="app.diagrams.net" agent="Mozilla/5.0 (Windows NT 10.0; Win64; x64) AppleWebKit/537.36 (KHTML, like Gecko) Chrome/128.0.0.0 Safari/537.36 OPR/114.0.0.0" version="24.8.6">
  <diagram name="Page-1" id="tDiiIapRGboyEm1KfOc_">
    <mxGraphModel dx="1434" dy="763" grid="1" gridSize="10" guides="1" tooltips="1" connect="1" arrows="1" fold="1" page="1" pageScale="1" pageWidth="827" pageHeight="1169" math="0" shadow="0">
      <root>
        <mxCell id="0" />
        <mxCell id="1" parent="0" />
        <mxCell id="raRUq8YvTuWD24Jn2hqm-4" value="" style="group;" vertex="1" connectable="0" parent="1">
          <mxGeometry x="5" y="360" width="80" height="80" as="geometry" />
        </mxCell>
        <mxCell id="raRUq8YvTuWD24Jn2hqm-10" value="" style="group;" vertex="1" connectable="0" parent="raRUq8YvTuWD24Jn2hqm-4">
          <mxGeometry width="80" height="80" as="geometry" />
        </mxCell>
        <mxCell id="raRUq8YvTuWD24Jn2hqm-1" value="" style="ellipse;whiteSpace=wrap;html=1;aspect=fixed;fillColor=#dae8fc;strokeColor=#6c8ebf;" vertex="1" parent="raRUq8YvTuWD24Jn2hqm-10">
          <mxGeometry width="80" height="80" as="geometry" />
        </mxCell>
        <mxCell id="raRUq8YvTuWD24Jn2hqm-3" value="&lt;div&gt;&lt;br&gt;&lt;/div&gt;User" style="shape=umlActor;verticalLabelPosition=bottom;verticalAlign=top;html=1;outlineConnect=0;fillColor=none;" vertex="1" parent="raRUq8YvTuWD24Jn2hqm-10">
          <mxGeometry x="25" y="10" width="30" height="60" as="geometry" />
        </mxCell>
        <mxCell id="raRUq8YvTuWD24Jn2hqm-8" value="" style="whiteSpace=wrap;html=1;aspect=fixed;fillColor=#dae8fc;strokeColor=#6c8ebf;align=left;" vertex="1" parent="1">
          <mxGeometry x="100" y="90" width="600" height="600" as="geometry" />
        </mxCell>
        <mxCell id="raRUq8YvTuWD24Jn2hqm-11" value="" style="group;" vertex="1" connectable="0" parent="1">
          <mxGeometry x="744" y="360" width="80" height="80" as="geometry" />
        </mxCell>
        <mxCell id="raRUq8YvTuWD24Jn2hqm-5" value="" style="ellipse;whiteSpace=wrap;html=1;aspect=fixed;fillColor=#dae8fc;strokeColor=#6c8ebf;" vertex="1" parent="raRUq8YvTuWD24Jn2hqm-11">
          <mxGeometry width="80" height="80" as="geometry" />
        </mxCell>
        <mxCell id="raRUq8YvTuWD24Jn2hqm-7" value="&lt;div&gt;&lt;br&gt;&lt;/div&gt;Admin" style="shape=umlActor;verticalLabelPosition=bottom;verticalAlign=top;html=1;outlineConnect=0;fillColor=none;" vertex="1" parent="raRUq8YvTuWD24Jn2hqm-11">
          <mxGeometry x="25" y="10" width="30" height="60" as="geometry" />
        </mxCell>
        <mxCell id="raRUq8YvTuWD24Jn2hqm-12" value="Adds Asset" style="ellipse;whiteSpace=wrap;html=1;fillColor=#ffcd28;strokeColor=#d79b00;gradientColor=#ffa500;" vertex="1" parent="1">
          <mxGeometry x="340" y="130" width="120" height="80" as="geometry" />
        </mxCell>
        <mxCell id="raRUq8YvTuWD24Jn2hqm-13" value="Removes Asset" style="ellipse;whiteSpace=wrap;html=1;fillColor=#ffcd28;gradientColor=#ffa500;strokeColor=#d79b00;" vertex="1" parent="1">
          <mxGeometry x="340" y="220" width="120" height="80" as="geometry" />
        </mxCell>
        <mxCell id="raRUq8YvTuWD24Jn2hqm-14" value="Displays All Assets" style="ellipse;whiteSpace=wrap;html=1;fillColor=#ffcd28;gradientColor=#ffa500;strokeColor=#d79b00;" vertex="1" parent="1">
          <mxGeometry x="340" y="310" width="120" height="80" as="geometry" />
        </mxCell>
        <mxCell id="raRUq8YvTuWD24Jn2hqm-15" value="Searches for Asset" style="ellipse;whiteSpace=wrap;html=1;fillColor=#ffcd28;gradientColor=#ffa500;strokeColor=#d79b00;" vertex="1" parent="1">
          <mxGeometry x="340" y="400" width="120" height="80" as="geometry" />
        </mxCell>
        <mxCell id="raRUq8YvTuWD24Jn2hqm-16" value="Updates an Asset" style="ellipse;whiteSpace=wrap;html=1;fillColor=#ffcd28;gradientColor=#ffa500;strokeColor=#d79b00;" vertex="1" parent="1">
          <mxGeometry x="340" y="490" width="120" height="80" as="geometry" />
        </mxCell>
        <mxCell id="raRUq8YvTuWD24Jn2hqm-21" value="Removes All Assets" style="ellipse;whiteSpace=wrap;html=1;fillColor=#ffcd28;gradientColor=#ffa500;strokeColor=#d79b00;" vertex="1" parent="1">
          <mxGeometry x="550" y="585" width="120" height="80" as="geometry" />
        </mxCell>
        <mxCell id="raRUq8YvTuWD24Jn2hqm-27" value="" style="endArrow=none;html=1;rounded=0;exitX=1;exitY=0.5;exitDx=0;exitDy=0;entryX=0;entryY=0.5;entryDx=0;entryDy=0;" edge="1" parent="1" source="raRUq8YvTuWD24Jn2hqm-1" target="raRUq8YvTuWD24Jn2hqm-12">
          <mxGeometry width="50" height="50" relative="1" as="geometry">
            <mxPoint x="500" y="440" as="sourcePoint" />
            <mxPoint x="550" y="390" as="targetPoint" />
          </mxGeometry>
        </mxCell>
        <mxCell id="raRUq8YvTuWD24Jn2hqm-28" value="" style="endArrow=none;html=1;rounded=0;exitX=1;exitY=0.5;exitDx=0;exitDy=0;entryX=0;entryY=0.5;entryDx=0;entryDy=0;" edge="1" parent="1" source="raRUq8YvTuWD24Jn2hqm-1" target="raRUq8YvTuWD24Jn2hqm-13">
          <mxGeometry width="50" height="50" relative="1" as="geometry">
            <mxPoint x="95" y="410" as="sourcePoint" />
            <mxPoint x="350" y="170" as="targetPoint" />
          </mxGeometry>
        </mxCell>
        <mxCell id="raRUq8YvTuWD24Jn2hqm-29" value="" style="endArrow=none;html=1;rounded=0;exitX=1;exitY=0.5;exitDx=0;exitDy=0;entryX=0;entryY=0.5;entryDx=0;entryDy=0;" edge="1" parent="1" source="raRUq8YvTuWD24Jn2hqm-1" target="raRUq8YvTuWD24Jn2hqm-14">
          <mxGeometry width="50" height="50" relative="1" as="geometry">
            <mxPoint x="95" y="410" as="sourcePoint" />
            <mxPoint x="350" y="260" as="targetPoint" />
          </mxGeometry>
        </mxCell>
        <mxCell id="raRUq8YvTuWD24Jn2hqm-30" value="" style="endArrow=none;html=1;rounded=0;exitX=1;exitY=0.5;exitDx=0;exitDy=0;entryX=0;entryY=0.5;entryDx=0;entryDy=0;" edge="1" parent="1" source="raRUq8YvTuWD24Jn2hqm-1" target="raRUq8YvTuWD24Jn2hqm-15">
          <mxGeometry width="50" height="50" relative="1" as="geometry">
            <mxPoint x="95" y="410" as="sourcePoint" />
            <mxPoint x="350" y="350" as="targetPoint" />
          </mxGeometry>
        </mxCell>
        <mxCell id="raRUq8YvTuWD24Jn2hqm-31" value="Views Import Errors" style="ellipse;whiteSpace=wrap;html=1;fillColor=#ffcd28;gradientColor=#ffa500;strokeColor=#d79b00;" vertex="1" parent="1">
          <mxGeometry x="340" y="585" width="120" height="80" as="geometry" />
        </mxCell>
        <mxCell id="raRUq8YvTuWD24Jn2hqm-32" value="" style="endArrow=none;html=1;rounded=0;exitX=1;exitY=0.5;exitDx=0;exitDy=0;entryX=0;entryY=0.5;entryDx=0;entryDy=0;" edge="1" parent="1" source="raRUq8YvTuWD24Jn2hqm-1" target="raRUq8YvTuWD24Jn2hqm-16">
          <mxGeometry width="50" height="50" relative="1" as="geometry">
            <mxPoint x="95" y="410" as="sourcePoint" />
            <mxPoint x="350" y="450" as="targetPoint" />
          </mxGeometry>
        </mxCell>
        <mxCell id="raRUq8YvTuWD24Jn2hqm-33" value="" style="endArrow=none;html=1;rounded=0;exitX=1;exitY=0.5;exitDx=0;exitDy=0;entryX=0;entryY=0.5;entryDx=0;entryDy=0;" edge="1" parent="1" source="raRUq8YvTuWD24Jn2hqm-1" target="raRUq8YvTuWD24Jn2hqm-31">
          <mxGeometry width="50" height="50" relative="1" as="geometry">
            <mxPoint x="95" y="410" as="sourcePoint" />
            <mxPoint x="350" y="540" as="targetPoint" />
          </mxGeometry>
        </mxCell>
        <mxCell id="raRUq8YvTuWD24Jn2hqm-34" value="" style="endArrow=none;html=1;rounded=0;exitX=1;exitY=0.5;exitDx=0;exitDy=0;entryX=0;entryY=0.5;entryDx=0;entryDy=0;" edge="1" parent="1" source="raRUq8YvTuWD24Jn2hqm-12" target="raRUq8YvTuWD24Jn2hqm-5">
          <mxGeometry width="50" height="50" relative="1" as="geometry">
            <mxPoint x="489" y="270" as="sourcePoint" />
            <mxPoint x="744" y="400" as="targetPoint" />
          </mxGeometry>
        </mxCell>
        <mxCell id="raRUq8YvTuWD24Jn2hqm-35" value="" style="endArrow=none;html=1;rounded=0;entryX=0;entryY=0.5;entryDx=0;entryDy=0;exitX=1;exitY=0.5;exitDx=0;exitDy=0;" edge="1" parent="1" source="raRUq8YvTuWD24Jn2hqm-13" target="raRUq8YvTuWD24Jn2hqm-5">
          <mxGeometry width="50" height="50" relative="1" as="geometry">
            <mxPoint x="470" y="180" as="sourcePoint" />
            <mxPoint x="754" y="410" as="targetPoint" />
          </mxGeometry>
        </mxCell>
        <mxCell id="raRUq8YvTuWD24Jn2hqm-36" value="" style="endArrow=none;html=1;rounded=0;entryX=0;entryY=0.5;entryDx=0;entryDy=0;exitX=1;exitY=0.5;exitDx=0;exitDy=0;" edge="1" parent="1" source="raRUq8YvTuWD24Jn2hqm-14" target="raRUq8YvTuWD24Jn2hqm-5">
          <mxGeometry width="50" height="50" relative="1" as="geometry">
            <mxPoint x="470" y="270" as="sourcePoint" />
            <mxPoint x="754" y="410" as="targetPoint" />
          </mxGeometry>
        </mxCell>
        <mxCell id="raRUq8YvTuWD24Jn2hqm-37" value="" style="endArrow=none;html=1;rounded=0;entryX=0;entryY=0.5;entryDx=0;entryDy=0;exitX=1;exitY=0.5;exitDx=0;exitDy=0;" edge="1" parent="1" source="raRUq8YvTuWD24Jn2hqm-15" target="raRUq8YvTuWD24Jn2hqm-5">
          <mxGeometry width="50" height="50" relative="1" as="geometry">
            <mxPoint x="470" y="360" as="sourcePoint" />
            <mxPoint x="754" y="410" as="targetPoint" />
          </mxGeometry>
        </mxCell>
        <mxCell id="raRUq8YvTuWD24Jn2hqm-38" value="" style="endArrow=none;html=1;rounded=0;entryX=0;entryY=0.5;entryDx=0;entryDy=0;exitX=1;exitY=0.5;exitDx=0;exitDy=0;" edge="1" parent="1" source="raRUq8YvTuWD24Jn2hqm-16" target="raRUq8YvTuWD24Jn2hqm-5">
          <mxGeometry width="50" height="50" relative="1" as="geometry">
            <mxPoint x="470" y="450" as="sourcePoint" />
            <mxPoint x="754" y="410" as="targetPoint" />
          </mxGeometry>
        </mxCell>
        <mxCell id="raRUq8YvTuWD24Jn2hqm-39" value="" style="endArrow=none;html=1;rounded=0;exitX=1;exitY=0.5;exitDx=0;exitDy=0;" edge="1" parent="1" source="raRUq8YvTuWD24Jn2hqm-31">
          <mxGeometry width="50" height="50" relative="1" as="geometry">
            <mxPoint x="470" y="540" as="sourcePoint" />
            <mxPoint x="740" y="400" as="targetPoint" />
          </mxGeometry>
        </mxCell>
        <mxCell id="raRUq8YvTuWD24Jn2hqm-40" value="" style="endArrow=none;html=1;rounded=0;exitX=0.5;exitY=0;exitDx=0;exitDy=0;entryX=0;entryY=0.5;entryDx=0;entryDy=0;" edge="1" parent="1" source="raRUq8YvTuWD24Jn2hqm-21" target="raRUq8YvTuWD24Jn2hqm-5">
          <mxGeometry width="50" height="50" relative="1" as="geometry">
            <mxPoint x="470" y="635" as="sourcePoint" />
            <mxPoint x="750" y="410" as="targetPoint" />
          </mxGeometry>
        </mxCell>
      </root>
    </mxGraphModel>
  </diagram>
</mxfile>
